<?xml version="1.0" standalone="no"?>
<!DOCTYPE svg PUBLIC "-//W3C//DTD SVG 20010904//EN"
 "http://www.w3.org/TR/2001/REC-SVG-20010904/DTD/svg10.dtd">
<svg version="1.0" xmlns="http://www.w3.org/2000/svg"
 width="568.000000pt" height="568.000000pt" viewBox="0 0 568.000000 568.000000"
 preserveAspectRatio="xMidYMid meet">
<metadata>
Created by potrace 1.14, written by Peter Selinger 2001-2017
</metadata>
<g transform="translate(0.000000,568.000000) scale(0.100000,-0.100000)"
fill="#000000" stroke="none">
<path d="M2647 5204 c-3 -5 -18 -10 -34 -9 -15 0 -31 -4 -35 -10 -5 -6 -8 -5
-8 3 0 8 -5 10 -12 5 -7 -4 -31 -9 -53 -9 -22 -1 -40 -3 -40 -4 0 -2 -37 -11
-65 -15 -14 -1 -25 -4 -25 -5 0 -1 -7 -3 -15 -5 -27 -5 -84 -16 -105 -20 -11
-2 -22 -4 -25 -5 -3 -1 -9 -3 -15 -5 -5 -1 -13 -3 -17 -5 -12 -4 -20 -6 -60
-14 -21 -5 -38 -13 -38 -20 0 -6 -5 -4 -10 4 -7 11 -10 11 -10 2 0 -7 -4 -11
-9 -7 -5 3 -12 1 -16 -5 -4 -6 -11 -8 -16 -5 -5 4 -9 1 -9 -4 0 -6 -3 -10 -7
-9 -19 5 -84 -21 -248 -98 -55 -26 -103 -47 -107 -46 -5 1 -8 -2 -8 -7 0 -5
-21 -19 -47 -32 -27 -12 -50 -25 -53 -28 -12 -14 -70 -51 -80 -51 -5 0 -10 -4
-10 -10 0 -5 -7 -10 -15 -10 -8 0 -15 -4 -15 -10 0 -5 -7 -10 -15 -10 -8 0
-15 -4 -15 -10 0 -5 -7 -10 -15 -10 -8 0 -15 -3 -15 -7 0 -5 -17 -19 -37 -33
-36 -25 -67 -51 -147 -122 -22 -21 -45 -38 -49 -38 -5 0 -5 -4 -2 -10 3 -5 -2
-10 -11 -10 -10 0 -14 -3 -11 -7 4 -3 -5 -15 -20 -25 -16 -10 -25 -18 -21 -18
3 0 -8 -15 -25 -33 -78 -81 -123 -139 -223 -284 -12 -18 -23 -30 -26 -28 -2 2
-4 -5 -5 -15 -1 -11 -7 -25 -13 -32 -12 -14 -54 -80 -55 -88 0 -3 -8 -19 -18
-36 -9 -17 -13 -35 -9 -39 4 -5 2 -5 -5 -1 -8 4 -15 -2 -19 -19 -3 -14 -10
-25 -16 -25 -5 0 -7 -4 -3 -9 3 -5 1 -12 -5 -16 -6 -4 -8 -11 -5 -16 4 -5 1
-9 -4 -9 -6 0 -10 -3 -9 -7 1 -5 -3 -19 -9 -33 -6 -14 -11 -28 -12 -32 -1 -4
-10 -28 -21 -52 -10 -24 -16 -47 -13 -50 4 -3 1 -6 -6 -6 -8 0 -11 -7 -7 -15
3 -8 1 -15 -3 -15 -5 0 -12 -7 -15 -16 -4 -10 -2 -13 7 -8 6 4 5 -1 -4 -12 -9
-10 -15 -27 -14 -36 2 -10 -1 -20 -6 -24 -5 -3 -7 -10 -4 -15 4 -5 2 -9 -4 -9
-5 0 -8 -8 -6 -17 1 -10 -1 -25 -6 -34 -8 -16 -15 -46 -25 -104 -3 -16 -9 -43
-13 -60 -4 -16 -7 -42 -7 -57 1 -16 -2 -28 -6 -28 -4 0 -8 -5 -8 -11 0 -5 5
-7 12 -3 7 5 8 3 2 -7 -5 -8 -10 -25 -11 -39 -2 -14 -4 -36 -7 -50 -2 -14 -4
-30 -5 -37 0 -6 -10 -9 -21 -6 -11 3 -20 1 -20 -5 0 -5 -8 -12 -17 -16 -33
-11 -82 -43 -76 -50 3 -3 2 -6 -4 -6 -14 0 -73 -57 -73 -71 0 -5 -5 -7 -10 -4
-6 3 -14 -5 -20 -19 -5 -14 -14 -26 -20 -26 -6 0 -9 -4 -6 -9 3 -5 0 -14 -8
-20 -13 -11 -28 -51 -25 -67 0 -4 -5 -10 -11 -14 -7 -4 -13 -24 -14 -44 0 -20
-4 -36 -7 -36 -9 0 -11 -66 -12 -480 -1 -427 1 -478 17 -499 6 -8 9 -15 7 -15
-7 -1 21 -99 31 -111 22 -26 57 -85 51 -85 -4 0 26 -31 66 -70 40 -38 77 -67
82 -64 5 3 9 1 9 -4 0 -7 60 -41 78 -43 4 0 14 -7 23 -15 9 -8 19 -11 22 -8 4
4 12 2 19 -3 7 -6 23 -9 35 -8 13 1 23 -2 23 -7 0 -4 10 -7 23 -7 12 0 34 -2
50 -5 16 -4 27 -2 27 4 0 6 5 8 12 4 6 -4 64 -8 127 -8 64 -1 122 -5 129 -9 6
-5 12 -4 12 1 0 5 28 8 62 7 53 -2 64 -5 84 -28 13 -15 26 -27 29 -27 3 0 16
-11 29 -25 13 -13 26 -22 29 -18 4 3 7 0 7 -8 0 -8 14 -25 31 -39 16 -14 47
-40 67 -57 20 -18 43 -33 50 -33 7 0 10 -5 7 -10 -3 -6 0 -10 8 -10 7 0 27
-13 43 -30 16 -16 34 -30 40 -30 6 0 22 -10 35 -22 14 -13 28 -23 31 -23 4 0
17 -8 28 -18 11 -9 23 -17 25 -17 3 0 23 -11 45 -25 21 -14 45 -26 52 -27 7
-2 18 -10 25 -18 7 -8 13 -12 13 -7 0 4 18 -4 40 -18 22 -14 43 -25 48 -25 4
0 28 -10 53 -22 24 -12 47 -21 51 -20 4 1 24 -7 43 -18 20 -11 44 -21 53 -23
9 -1 22 -6 29 -10 6 -4 23 -8 37 -9 14 -1 26 -6 26 -11 0 -4 4 -5 10 -2 5 3
10 1 10 -5 0 -6 4 -9 8 -6 5 3 28 -1 53 -8 24 -8 46 -14 49 -14 3 0 12 -3 20
-6 19 -6 129 -29 153 -32 9 -1 26 -2 38 -3 11 0 18 -5 15 -9 -3 -5 11 -7 30
-6 19 2 45 -1 58 -6 15 -5 27 -5 35 3 6 6 11 7 11 2 0 -13 72 -18 245 -17 184
1 257 5 273 15 7 5 12 4 12 -3 0 -6 4 -8 10 -5 5 3 26 8 47 10 21 3 54 8 73
11 19 4 45 7 58 8 12 1 22 5 22 10 0 5 3 6 7 3 3 -4 13 -1 21 6 12 9 14 9 9 0
-6 -9 3 -8 28 2 19 9 35 12 35 9 0 -4 6 -2 13 3 6 6 20 9 30 8 9 -2 17 1 17 5
0 5 9 7 20 5 11 -2 20 1 20 6 0 6 5 7 10 4 6 -3 10 0 10 7 0 9 3 9 10 -2 5 -8
10 -10 10 -4 0 6 6 11 13 12 20 1 41 7 52 13 6 4 28 12 50 19 22 7 43 18 47
24 5 7 8 6 8 -3 0 -11 4 -9 15 5 8 10 15 15 15 10 0 -5 7 -3 15 4 8 6 19 9 25
5 5 -3 10 -1 10 5 0 6 5 8 10 5 6 -3 10 -2 10 3 0 5 25 19 55 32 30 13 55 27
55 32 0 5 4 7 9 3 5 -3 12 -1 16 5 4 6 11 8 16 5 5 -4 9 -2 9 2 0 5 17 17 38
28 20 11 40 24 44 30 4 5 8 7 8 3 0 -4 9 0 20 10 12 9 22 15 24 12 1 -3 10 2
19 10 35 32 47 40 47 33 0 -4 7 3 16 15 8 12 21 22 28 22 8 0 16 7 20 15 3 8
10 15 16 15 5 0 18 8 28 17 27 26 56 48 65 51 14 4 44 37 40 45 -2 4 3 7 12 7
8 0 18 7 21 15 3 8 14 17 25 20 11 4 17 11 14 16 -4 5 -2 9 4 9 5 0 28 17 50
39 22 21 43 36 46 33 3 -3 5 -1 5 4 0 12 70 11 89 -1 8 -5 12 -4 8 1 -7 12
222 12 241 1 6 -5 12 -4 12 1 0 4 30 8 68 9 100 0 192 17 192 35 0 5 5 6 10 3
12 -8 116 41 148 68 12 11 22 18 22 14 0 -4 15 8 34 26 18 18 32 35 29 39 -2
4 4 5 13 1 11 -4 15 -3 10 5 -3 6 -1 14 6 19 17 11 58 69 58 83 0 5 4 10 8 10
8 0 32 65 33 87 0 5 7 12 15 16 10 6 11 13 4 26 -5 10 -6 21 -3 25 4 4 9 14
11 24 8 37 8 778 0 789 -5 6 -5 14 0 17 10 6 2 141 -8 141 -1 0 -3 10 -6 22
-2 12 -5 28 -6 35 -2 7 -9 19 -16 26 -7 8 -10 18 -7 23 4 5 3 9 -2 9 -4 0 -14
12 -21 28 -12 27 -82 120 -82 109 0 -3 -17 12 -38 34 -22 21 -42 36 -45 32 -4
-3 -7 -2 -7 3 0 6 -16 16 -35 24 -19 7 -32 17 -29 21 2 4 -5 6 -16 4 -11 -2
-20 1 -20 7 0 6 -2 9 -5 6 -12 -12 -80 21 -82 39 -5 35 -16 148 -16 166 -1 9
-4 17 -7 17 -3 0 -6 8 -6 18 -1 9 -4 35 -8 57 -5 22 -8 47 -8 55 -1 8 -5 20
-10 27 -5 7 -7 17 -3 23 3 5 1 10 -5 10 -6 0 -10 6 -9 13 2 13 -7 41 -22 70
-6 11 -6 17 2 17 8 0 7 5 -2 16 -7 9 -14 25 -16 37 -2 11 -8 26 -13 32 -5 7
-7 15 -3 18 3 4 0 7 -8 7 -11 0 -11 2 -1 9 10 6 10 10 -3 21 -8 7 -15 19 -15
26 0 8 -4 22 -9 32 -5 9 -20 41 -32 70 -12 28 -25 52 -29 52 -3 0 -6 10 -7 22
-1 11 -7 24 -14 28 -6 4 -8 13 -5 19 4 6 2 11 -3 11 -6 0 -18 17 -26 37 -9 21
-19 40 -23 43 -5 3 -16 22 -25 43 -10 20 -22 37 -27 37 -5 0 -6 7 -3 17 4 11
3 14 -5 9 -7 -4 -12 -1 -12 8 0 9 -8 24 -17 34 -10 10 -24 30 -32 45 -8 15
-18 27 -23 27 -4 0 -8 5 -8 11 0 6 -6 16 -12 23 -7 7 -22 25 -33 40 -11 15
-32 41 -47 58 -16 18 -28 35 -28 40 0 4 -6 8 -14 8 -13 0 -31 27 -28 43 1 4
-2 6 -7 5 -4 -2 -27 16 -50 40 -22 23 -46 42 -52 42 -5 0 -8 4 -5 8 3 5 -15
24 -39 42 -25 19 -45 38 -45 42 0 5 -4 7 -9 3 -5 -3 -12 4 -16 15 -4 11 -10
18 -15 15 -5 -3 -12 1 -17 8 -4 7 -30 30 -58 50 -27 20 -55 41 -61 46 -7 6
-15 7 -18 4 -3 -4 -6 -1 -6 6 0 7 -4 9 -10 6 -5 -3 -10 0 -10 8 0 7 -16 19
-35 27 -19 7 -32 16 -30 20 2 3 -6 7 -18 7 -12 1 -23 7 -25 13 -2 5 -10 10
-18 10 -8 0 -14 5 -14 11 0 5 -4 7 -10 4 -5 -3 -10 -1 -10 5 0 6 -4 9 -9 6 -5
-4 -11 -2 -13 3 -1 5 -10 11 -18 13 -8 2 -17 5 -20 8 -14 14 -130 67 -124 57
3 -7 -2 -3 -10 7 -9 11 -19 17 -22 13 -3 -3 -21 3 -41 14 -19 11 -42 21 -51
23 -16 3 -26 6 -69 23 -10 3 -20 7 -23 7 -3 1 -11 5 -18 10 -7 4 -16 6 -18 3
-3 -3 -17 1 -31 8 -14 7 -32 11 -39 8 -8 -3 -14 0 -14 7 0 6 -4 9 -9 5 -5 -3
-12 -1 -16 5 -4 6 -10 8 -15 5 -5 -3 -33 1 -61 9 -28 9 -55 13 -60 11 -4 -3
-10 -1 -14 4 -3 5 -14 8 -25 6 -11 -2 -22 0 -25 5 -3 5 -12 7 -20 3 -8 -3 -23
-2 -32 2 -10 5 -27 8 -38 9 -11 1 -26 5 -32 9 -8 5 -13 4 -13 -2 0 -7 -8 -7
-22 -2 -13 4 -36 7 -53 6 -16 -1 -38 3 -49 8 -14 7 -16 6 -11 -4 6 -8 4 -10
-6 -3 -20 12 -102 12 -118 0 -11 -8 -13 -8 -8 0 8 14 -85 13 -95 -1 -5 -6 -8
-5 -8 3 0 9 -5 10 -19 2 -14 -7 -21 -6 -23 2 -3 8 -7 8 -11 2z m76 -427 c9 9
167 10 167 1 0 -4 11 -3 25 2 16 6 26 6 31 -1 4 -8 9 -7 15 2 5 8 9 9 9 4 0
-6 10 -11 23 -12 70 -2 137 -9 137 -13 0 -3 12 -7 28 -8 15 -1 38 -5 52 -8 14
-3 36 -8 50 -9 14 -2 26 -4 28 -5 1 -2 7 -4 12 -5 6 -1 11 -4 13 -5 1 -1 13
-4 27 -5 13 -1 26 -8 28 -14 3 -8 9 -8 24 0 15 8 19 8 14 0 -5 -7 2 -11 18
-11 14 0 26 -4 26 -10 0 -5 14 -10 30 -10 17 0 30 -5 30 -11 0 -5 5 -7 10 -4
6 3 10 2 10 -4 0 -6 6 -8 14 -5 8 3 17 1 21 -5 3 -6 15 -11 26 -11 10 0 19 -5
19 -11 0 -5 5 -7 10 -4 6 3 10 1 10 -5 0 -6 5 -8 11 -4 6 3 14 3 18 -2 7 -11
63 -38 74 -36 4 1 7 -3 7 -9 0 -5 5 -7 10 -4 6 3 13 -1 16 -9 3 -9 10 -13 15
-10 5 3 9 0 9 -5 0 -6 5 -11 11 -11 6 0 31 -13 56 -30 24 -16 48 -30 54 -30 5
0 9 -5 9 -12 0 -6 3 -9 6 -6 3 4 14 -1 24 -10 31 -28 44 -38 63 -45 9 -3 17
-11 17 -17 0 -6 4 -9 9 -5 5 3 12 -4 16 -15 3 -11 12 -20 18 -20 7 0 19 -9 27
-19 7 -11 17 -18 22 -15 4 3 8 0 8 -5 0 -10 53 -66 68 -73 4 -2 19 -17 33 -35
15 -18 30 -29 33 -26 3 4 6 1 6 -6 0 -6 9 -22 21 -34 11 -12 39 -47 62 -77 22
-30 46 -59 52 -65 7 -5 13 -13 13 -18 3 -12 56 -91 67 -99 7 -5 7 -8 0 -8 -5
0 -1 -7 9 -15 11 -8 16 -15 10 -15 -5 0 -4 -4 1 -8 15 -10 87 -152 78 -152 -5
0 1 -7 11 -15 13 -10 15 -15 6 -15 -9 0 -7 -5 6 -15 10 -8 16 -15 11 -15 -4 0
-1 -13 7 -29 9 -16 12 -31 9 -35 -4 -3 -1 -6 6 -6 7 0 10 -4 6 -9 -3 -5 -1
-12 4 -16 6 -3 8 -12 4 -20 -3 -8 -1 -15 4 -15 5 0 9 -8 10 -17 5 -53 9 -73
14 -73 4 0 7 -6 6 -12 -1 -42 4 -78 11 -74 10 6 9 -30 -1 -40 -4 -4 -2 -13 4
-20 6 -8 9 -20 6 -28 -3 -8 -2 -16 3 -18 5 -2 2 -12 -6 -23 -15 -20 -16 -19
-44 13 -17 17 -33 32 -36 32 -8 0 -74 72 -74 81 0 4 -9 11 -20 14 -11 3 -20
10 -20 15 0 5 -63 73 -140 151 -77 78 -140 147 -140 151 0 5 -4 6 -10 3 -5 -3
-10 -1 -10 5 0 6 -18 29 -40 50 -21 20 -36 40 -33 44 4 3 1 6 -5 6 -6 0 -30
21 -54 46 -24 25 -55 59 -70 74 -14 16 -29 26 -32 23 -3 -4 -6 -1 -6 5 0 6
-22 34 -50 62 -27 28 -50 55 -50 61 0 6 -4 8 -8 5 -5 -3 -14 4 -22 14 -8 10
-17 17 -22 14 -4 -3 -8 -1 -8 5 0 5 -25 9 -57 9 -51 -2 -61 -6 -90 -35 -18
-18 -33 -29 -33 -25 0 4 -8 -5 -18 -21 -10 -15 -21 -25 -23 -23 -3 3 -13 -8
-24 -24 -11 -17 -26 -32 -33 -35 -12 -4 -274 250 -265 259 2 2 -5 7 -16 11
-12 3 -21 10 -21 15 0 12 -82 96 -91 93 -4 -1 -10 9 -13 23 -4 14 -10 23 -15
20 -9 -6 -42 30 -34 38 4 3 -2 6 -12 6 -10 0 -16 3 -13 6 3 3 -11 21 -31 41
-20 19 -34 40 -33 47 2 6 0 8 -3 4 -4 -4 -21 6 -37 23 -43 43 -122 81 -137 66
-8 -8 -11 -8 -11 0 0 8 -10 9 -37 1 -43 -12 -86 -39 -124 -80 -15 -15 -29 -24
-33 -21 -3 3 -6 1 -6 -5 0 -7 -40 -52 -89 -101 -49 -50 -86 -92 -83 -95 3 -3
0 -6 -7 -6 -7 0 -32 -21 -54 -47 -23 -25 -95 -99 -160 -164 -110 -111 -157
-150 -157 -132 0 13 -133 148 -142 146 -4 -2 -8 1 -8 6 0 14 -48 19 -93 9 -36
-7 -61 -28 -172 -141 -71 -73 -133 -131 -137 -130 -4 2 -7 -1 -5 -6 1 -5 -11
-20 -26 -35 -15 -14 -25 -26 -22 -26 3 0 0 -6 -7 -14 -7 -8 -15 -13 -18 -12
-3 2 -13 -5 -22 -16 -10 -10 -16 -18 -14 -18 2 0 -66 -71 -151 -157 -85 -87
-155 -160 -156 -163 -1 -3 -5 -4 -9 -2 -5 1 -8 -3 -8 -9 0 -6 -11 -20 -25 -31
-14 -11 -22 -24 -19 -30 4 -7 2 -8 -4 -4 -6 3 -16 -3 -22 -14 -6 -11 -15 -18
-21 -15 -5 4 -8 3 -7 -2 2 -4 -12 -23 -30 -41 -17 -18 -32 -28 -32 -22 0 6 -4
9 -9 6 -9 -6 -6 47 6 94 3 14 6 37 6 53 0 15 4 27 9 27 5 0 6 5 3 10 -4 6 -1
17 5 25 10 12 10 15 -1 15 -11 0 -11 2 1 10 8 5 11 10 7 10 -4 0 -3 9 3 19 5
11 11 31 12 45 1 15 6 26 11 26 4 0 5 5 2 10 -4 6 -2 17 5 24 6 8 13 25 15 37
3 13 9 25 14 27 6 2 8 9 5 17 -3 7 0 16 5 20 6 3 9 11 6 16 -4 5 -1 9 5 9 6 0
9 4 6 9 -4 5 -3 11 2 13 4 1 21 29 37 61 49 96 58 111 72 125 7 7 13 20 13 27
0 8 10 21 23 30 12 8 21 19 20 23 -2 7 30 53 55 78 6 7 12 15 12 18 0 3 20 26
45 50 25 25 45 47 45 50 0 2 16 20 35 39 19 19 35 34 35 32 0 -2 26 22 58 54
32 31 71 65 87 76 15 11 36 27 45 36 28 27 182 124 192 121 5 -1 11 5 14 13 4
8 12 15 20 15 8 0 14 5 14 11 0 5 5 7 10 4 6 -3 10 -1 10 5 0 6 5 8 10 5 6 -3
13 1 16 9 3 9 9 14 14 11 4 -2 24 4 45 15 21 11 42 17 47 14 5 -3 7 0 6 8 -2
8 4 12 15 10 9 -2 17 3 17 9 0 7 3 10 6 6 4 -3 21 0 39 8 19 7 36 11 39 7 3
-3 6 0 6 7 0 8 7 11 15 7 8 -3 15 -1 15 5 0 6 7 9 15 5 8 -3 15 -1 15 4 0 5 9
7 20 5 11 -2 20 0 20 4 0 5 17 12 38 16 20 4 43 11 50 17 8 8 12 7 12 -3 0
-11 2 -11 10 1 5 8 10 12 10 8 0 -3 19 0 43 7 23 7 50 11 60 9 9 -1 17 1 17 6
0 4 12 7 28 8 15 0 29 1 32 2 6 3 20 5 105 14 32 4 61 9 64 11 2 3 9 0 16 -5
7 -5 15 -7 18 -3z m126 -714 c21 -23 36 -44 33 -47 -3 -3 2 -6 11 -6 10 0 17
-7 17 -16 0 -8 5 -12 10 -9 6 3 10 -1 10 -10 0 -9 5 -13 10 -10 6 3 10 2 10
-4 0 -6 17 -28 38 -50 20 -21 78 -83 127 -136 50 -54 114 -122 143 -152 28
-30 52 -59 52 -64 0 -5 8 -9 17 -9 9 0 14 -3 10 -6 -3 -3 19 -30 48 -60 29
-30 71 -75 91 -100 21 -25 40 -41 42 -35 2 5 10 7 18 4 8 -3 14 0 14 7 0 7 12
24 28 39 15 14 48 50 75 78 26 29 47 50 47 47 0 -2 14 11 31 30 17 20 36 34
42 33 14 -2 107 -97 107 -109 0 -4 7 -8 15 -8 8 0 15 -4 15 -9 0 -13 47 -60
54 -54 3 4 6 1 6 -5 0 -7 12 -25 28 -41 121 -128 125 -135 70 -109 -24 11 -44
24 -46 29 -2 4 -10 5 -18 2 -8 -3 -14 -1 -14 4 0 11 -11 12 -90 14 -54 1 -140
-26 -140 -44 0 -4 -4 -5 -10 -2 -5 3 -10 0 -10 -8 0 -8 -6 -17 -13 -20 -8 -3
-35 -33 -60 -67 -26 -34 -47 -59 -47 -55 0 4 -8 -3 -18 -15 -18 -22 -112 -46
-112 -29 0 9 -20 7 -37 -4 -8 -5 -13 -3 -13 3 0 6 -5 8 -12 4 -18 -12 -58 -11
-58 1 0 5 -5 3 -10 -5 -7 -11 -10 -11 -10 -2 0 10 -5 10 -20 2 -12 -6 -20 -7
-20 -1 0 6 -11 6 -29 1 -20 -5 -31 -5 -33 2 -3 8 -11 7 -26 -1 -15 -8 -22 -8
-22 -1 0 6 -5 8 -12 4 -16 -10 -48 -13 -48 -4 0 3 -12 5 -27 4 -16 -1 -28 -3
-28 -4 0 -1 -12 -3 -27 -4 -16 -1 -28 2 -28 7 0 4 -10 3 -21 -4 -16 -8 -20 -8
-14 1 6 9 2 9 -16 0 -18 -10 -24 -10 -27 -1 -3 9 -7 9 -19 0 -9 -8 -17 -9 -21
-3 -6 8 -45 10 -62 4 -17 -6 -60 -4 -60 3 0 4 -10 2 -22 -4 -27 -15 -28 -14
-38 1 -5 8 -13 9 -21 4 -20 -12 -59 -14 -59 -2 0 6 -6 6 -15 -2 -12 -10 -15
-10 -15 0 0 9 -4 9 -12 2 -7 -5 -22 -6 -33 -2 -11 4 -28 3 -37 -2 -12 -6 -18
-5 -18 2 0 6 -5 8 -12 4 -18 -11 -58 -14 -58 -4 0 11 -33 7 -42 -5 -5 -6 -8
-5 -8 3 0 10 -5 10 -20 2 -14 -8 -20 -8 -20 0 0 6 -5 8 -12 4 -19 -12 -52 -12
-59 -1 -4 5 -13 6 -20 1 -16 -9 -59 -10 -82 -1 -10 4 -17 1 -18 -6 0 -9 -2 -9
-6 0 -3 9 -10 10 -24 3 -13 -8 -19 -7 -19 0 0 6 -5 8 -12 3 -17 -10 -39 -10
-59 -1 -9 4 -20 4 -24 0 -10 -10 -29 -9 -37 3 -5 6 -8 5 -8 -4 0 -10 -3 -11
-14 -2 -8 7 -16 8 -19 4 -6 -10 -70 -8 -86 2 -6 3 -11 2 -11 -4 0 -9 -37 -7
-67 4 -7 2 -13 1 -13 -3 0 -9 -54 -7 -69 3 -6 3 -11 2 -11 -2 0 -10 -53 -9
-69 2 -6 3 -11 0 -12 -7 0 -10 -2 -10 -6 -1 -3 9 -10 10 -24 3 -13 -8 -19 -7
-19 0 0 6 -5 8 -12 3 -16 -10 -36 -10 -70 -1 -19 4 -28 3 -29 -5 0 -9 -2 -8
-6 0 -3 9 -10 10 -24 3 -14 -8 -19 -7 -19 1 0 8 -4 8 -13 1 -8 -7 -18 -7 -27
-2 -9 5 -20 5 -28 -2 -10 -9 -16 -8 -22 2 -6 10 4 27 36 59 24 25 44 49 44 53
0 4 7 8 17 8 9 0 14 3 10 6 -7 7 29 44 44 44 5 0 8 3 6 8 -5 9 80 92 87 84 3
-3 6 0 6 6 0 9 158 173 232 240 l26 23 108 -110 c163 -164 218 -223 237 -251
9 -13 17 -20 17 -15 0 6 4 4 9 -4 6 -10 21 -1 60 39 28 28 51 56 51 61 0 6 3
8 8 6 4 -2 21 11 39 30 18 18 31 33 29 33 -1 0 40 43 91 95 52 52 92 95 89 95
-3 0 8 13 24 29 17 15 30 31 30 34 0 3 -34 4 -75 3 -42 -2 -78 1 -81 6 -3 4
-11 5 -17 1 -16 -10 -87 -11 -87 -1 0 4 -7 5 -15 2 -8 -4 -15 -3 -15 0 0 11
231 236 242 236 6 0 9 2 6 5 -6 6 36 51 79 84 14 12 22 21 18 21 -4 0 12 16
35 35 23 19 39 35 35 35 -3 0 6 11 22 24 15 13 33 23 40 22 7 -1 30 -21 52
-43z m1399 -1112 c6 -8 12 -11 12 -5 1 13 20 -23 26 -49 9 -38 5 -67 -14 -89
-6 -8 -8 -19 -4 -23 4 -5 1 -5 -6 -1 -7 4 -14 1 -18 -7 -2 -7 -10 -14 -17 -15
-69 -10 -87 -10 -87 -1 0 6 -4 8 -9 4 -5 -3 -12 -1 -16 5 -4 6 -10 8 -14 5 -5
-2 -13 7 -19 20 -7 14 -15 25 -20 25 -9 0 -9 66 0 76 4 3 4 13 1 22 -4 10 -2
13 5 8 7 -4 12 -1 12 8 0 9 6 16 14 16 8 0 16 5 18 12 2 6 21 11 41 11 20 0
34 4 31 9 -9 14 50 -15 64 -31z m-378 -93 c0 -4 6 -8 13 -8 20 0 34 -39 32
-83 -1 -21 2 -40 7 -43 4 -3 5 -11 1 -17 -11 -18 -9 -87 2 -87 6 0 6 -3 0 -8
-12 -8 -14 -97 -3 -108 4 -4 2 -16 -4 -28 -14 -25 -13 -26 4 -37 7 -5 8 -9 3
-9 -11 0 -13 -46 -2 -56 4 -4 3 -12 -1 -18 -9 -16 -9 -106 1 -106 4 0 5 -6 0
-12 -11 -19 -10 -62 2 -70 7 -5 6 -11 -2 -16 -8 -5 -9 -13 -3 -22 5 -8 5 -21
1 -29 -8 -18 -7 -58 2 -67 3 -3 2 -17 -3 -30 -7 -16 -6 -24 1 -24 8 0 8 -4 0
-14 -8 -10 -9 -16 -1 -21 6 -4 7 -12 1 -23 -5 -9 -9 -21 -9 -25 0 -22 -42 -55
-66 -53 -14 2 -26 -1 -26 -7 0 -5 -5 -5 -13 2 -8 6 -16 8 -19 5 -4 -3 -21 10
-40 28 l-33 34 0 446 c-1 246 3 444 7 442 4 -3 8 -1 8 4 0 13 51 63 59 58 4
-3 13 -1 21 4 18 11 60 9 60 -2z m-2640 -160 c0 -4 10 -7 23 -7 46 1 156 -45
197 -83 11 -10 24 -18 30 -18 5 0 10 -7 10 -16 0 -8 5 -12 10 -9 6 3 10 2 10
-2 0 -5 11 -21 25 -36 14 -15 22 -27 18 -27 -4 0 -3 -4 3 -8 10 -7 46 -77 44
-87 -1 -3 4 -16 12 -28 7 -12 13 -41 13 -64 0 -24 2 -43 5 -43 3 0 5 -83 5
-185 0 -102 -3 -185 -7 -185 -5 0 -8 -7 -8 -15 0 -8 -5 -15 -11 -15 -6 0 -17
-6 -24 -14 -22 -22 -135 -5 -135 20 0 8 -4 14 -9 14 -4 0 -8 85 -8 189 0 104
-4 194 -7 200 -4 6 -2 11 5 11 9 0 9 4 -1 15 -6 8 -9 18 -6 24 3 5 -1 12 -10
15 -8 3 -12 10 -9 16 3 5 1 10 -4 10 -6 0 -11 5 -11 12 0 32 -162 140 -176
117 -3 -6 -11 -5 -20 2 -11 9 -17 9 -29 -1 -9 -7 -15 -8 -15 -2 0 13 -32 10
-48 -6 -8 -7 -18 -10 -23 -7 -5 4 -9 1 -9 -5 0 -6 -5 -8 -10 -5 -13 8 -133
-112 -125 -125 3 -5 1 -10 -5 -10 -6 0 -9 -4 -5 -9 3 -5 1 -13 -5 -16 -8 -5
-7 -12 2 -23 7 -9 8 -13 2 -9 -8 5 -12 -45 -12 -179 -1 -101 -4 -189 -7 -194
-3 -6 -1 -10 5 -10 7 0 -2 -12 -19 -27 -25 -22 -41 -28 -80 -28 -27 0 -49 4
-48 10 1 5 -4 9 -10 10 -7 0 -19 10 -27 21 -12 17 -15 61 -16 212 -1 105 1
196 5 202 3 5 3 10 -2 10 -4 0 -8 21 -7 48 0 48 -14 107 -24 98 -3 -3 -12 0
-20 7 -13 10 -14 9 -7 -2 5 -8 -7 -4 -26 9 -19 13 -35 28 -37 32 -2 4 -10 8
-17 8 -7 0 -22 18 -33 40 -10 22 -22 36 -26 32 -4 -3 -3 5 3 20 5 14 7 29 4
32 -3 3 8 18 26 33 30 27 36 28 130 27 106 -1 104 0 171 -67 21 -22 44 -36 50
-32 5 3 7 11 4 17 -4 6 -2 8 3 5 6 -4 16 0 23 8 7 8 16 13 20 10 4 -2 17 5 29
16 12 11 26 17 31 14 6 -3 10 -2 10 3 0 5 6 9 13 10 15 1 52 10 52 12 0 1 12
3 28 4 15 2 29 5 31 7 8 8 86 5 86 -3z m965 -4 c76 -5 107 -11 116 -25 5 -8 9
-11 9 -7 0 10 60 -12 60 -23 0 -5 7 -9 15 -9 8 0 15 -4 15 -10 0 -5 6 -10 14
-10 8 0 18 -9 21 -20 4 -11 11 -18 16 -15 5 4 9 3 9 -2 0 -4 14 -24 30 -43 16
-19 30 -41 30 -47 0 -7 3 -13 8 -13 4 0 13 -15 20 -32 8 -18 17 -42 22 -53 5
-11 11 -33 14 -50 4 -16 8 -37 10 -45 2 -8 -2 -18 -8 -22 -6 -5 -7 -8 -1 -8 8
0 12 -58 5 -67 -2 -2 -3 -8 -4 -14 -3 -32 -34 -35 -335 -34 -166 0 -301 -1
-301 -3 0 -22 62 -96 73 -86 2 2 10 -2 17 -11 7 -8 21 -15 31 -15 11 0 19 -5
19 -10 0 -7 6 -7 20 0 11 6 20 7 20 3 0 -10 41 -10 57 0 7 4 15 3 18 -3 5 -8
11 -8 20 0 7 6 29 11 49 12 28 1 41 -5 61 -28 14 -16 25 -39 25 -51 0 -13 6
-23 13 -23 7 -1 5 -6 -5 -14 -10 -7 -16 -15 -13 -18 3 -2 -8 -16 -24 -31 -16
-14 -32 -23 -35 -20 -3 4 -6 1 -6 -4 0 -6 -8 -10 -17 -8 -10 1 -22 0 -28 -4
-5 -3 -19 -6 -30 -6 -11 0 -26 -4 -32 -8 -7 -5 -13 -4 -13 2 0 7 -8 7 -25 1
-14 -5 -25 -6 -25 -1 0 5 -14 8 -31 7 -16 -1 -32 1 -35 6 -3 5 -9 6 -14 3 -5
-3 -11 -1 -15 5 -4 6 -11 8 -16 5 -5 -4 -9 -2 -9 4 0 6 -7 8 -15 5 -8 -4 -15
-1 -15 5 0 6 -9 11 -20 11 -11 0 -20 5 -20 10 0 6 -5 10 -11 10 -7 0 -20 10
-30 22 -11 11 -19 18 -19 14 0 -4 -12 7 -27 26 -16 18 -36 42 -45 52 -10 11
-18 26 -18 33 0 7 -5 13 -12 13 -6 0 -8 3 -5 7 4 3 0 17 -8 29 -8 13 -16 31
-18 41 -1 10 -5 23 -9 28 -3 6 -4 53 -2 105 5 121 7 140 17 140 5 0 6 4 3 9
-3 5 1 14 9 21 8 7 13 16 10 20 -3 5 2 15 10 24 9 8 15 18 15 21 -2 21 143
156 173 161 4 1 12 2 18 3 5 0 7 6 3 13 -5 8 -2 9 9 5 9 -3 35 0 57 8 22 8 40
12 40 9 0 -3 8 -1 17 5 10 5 22 7 28 3 5 -3 28 -7 50 -8z m907 2 c17 11 68 10
68 0 0 -6 4 -5 9 3 6 9 11 10 15 2 4 -6 18 -9 32 -7 13 3 24 1 24 -4 0 -4 7
-11 16 -14 10 -4 13 -2 8 7 -5 9 -4 9 7 0 7 -7 21 -13 31 -13 10 0 18 -4 18
-9 0 -5 14 -14 30 -21 17 -7 30 -17 30 -23 0 -6 3 -8 6 -5 6 7 74 -61 74 -74
0 -5 4 -7 9 -4 9 6 26 -22 23 -36 -1 -5 2 -8 7 -8 9 0 28 -44 20 -46 -2 0 4
-8 14 -18 9 -10 15 -22 12 -27 -4 -5 -2 -9 3 -9 5 0 9 -6 10 -12 7 -95 8 -189
2 -193 -4 -2 -6 -16 -5 -30 2 -14 -1 -27 -6 -31 -5 -3 -7 -10 -4 -15 4 -5 1
-9 -4 -9 -6 0 -11 -9 -11 -19 0 -11 -5 -23 -10 -26 -6 -4 -8 -11 -5 -16 4 -5
1 -9 -5 -9 -7 0 -9 -7 -6 -16 3 -8 2 -12 -4 -9 -6 3 -10 1 -10 -5 0 -6 -4 -8
-10 -5 -5 3 -10 0 -10 -8 0 -14 -75 -87 -89 -87 -4 0 -16 -9 -26 -20 -10 -11
-22 -20 -26 -20 -4 0 -20 -5 -36 -12 -15 -6 -31 -11 -35 -10 -5 1 -8 -2 -8 -6
0 -11 -5 -11 -110 -15 -56 -2 -92 2 -106 10 -11 7 -24 10 -27 6 -4 -3 -7 -1
-7 6 0 7 -4 9 -10 6 -5 -3 -10 -1 -10 5 0 6 -4 8 -10 5 -5 -3 -10 -1 -10 4 0
6 -6 11 -14 11 -7 0 -19 7 -26 15 -29 35 -35 -1 -34 -194 0 -120 -3 -191 -9
-191 -6 0 -7 -3 -4 -6 4 -4 -5 -17 -19 -29 -35 -30 -98 -26 -133 10 l-26 25 0
462 c-1 255 -5 471 -9 480 -4 9 -16 15 -26 13 -10 -2 -21 4 -24 12 -4 9 -9 14
-12 11 -7 -7 -64 51 -64 64 0 6 -3 9 -6 6 -8 -9 -50 34 -58 59 -22 69 -3 85
99 82 34 -1 67 1 73 5 7 4 12 4 12 -1 0 -12 94 -10 102 2 5 6 8 6 8 -1 0 -7
11 -9 25 -6 31 6 85 -16 85 -34 0 -18 3 -18 58 8 45 21 55 25 87 31 8 2 18 6
22 11 4 4 9 2 11 -3 2 -6 8 -8 14 -5z m1508 -29 c0 -5 8 -17 18 -26 9 -9 28
-33 42 -53 14 -21 28 -38 33 -38 4 0 7 -7 7 -15 0 -8 5 -15 11 -15 5 0 7 -4 4
-10 -3 -5 1 -10 10 -10 9 0 14 -4 11 -8 -3 -5 3 -18 14 -29 10 -12 16 -24 13
-27 -4 -3 -1 -6 5 -6 7 0 12 -7 12 -15 0 -8 4 -15 8 -15 12 0 42 -56 34 -65
-4 -5 -1 -5 6 -1 7 4 12 2 12 -6 0 -8 9 -20 20 -28 11 -8 20 -18 20 -22 0 -9
23 -38 68 -85 17 -19 32 -37 32 -41 0 -3 7 -12 15 -21 71 -77 85 -93 85 -96 0
-2 11 -16 25 -31 14 -15 25 -33 25 -41 0 -8 4 -12 8 -9 5 3 9 -13 8 -34 0 -26
-5 -40 -14 -40 -7 0 -11 -4 -8 -9 6 -10 -40 -34 -69 -36 -11 -1 -26 4 -34 9
-12 9 -13 8 -7 -3 5 -8 -2 -6 -20 5 -32 20 -47 35 -84 84 -42 56 -75 95 -82
98 -5 2 -8 8 -8 13 0 8 -20 35 -47 64 -7 8 -13 18 -13 24 0 6 -5 11 -11 11 -5
0 -7 5 -4 10 3 6 2 10 -3 10 -6 0 -15 14 -21 30 -5 17 -17 33 -25 36 -9 3 -14
10 -11 14 3 5 -6 20 -20 34 -14 14 -23 26 -20 26 4 0 0 6 -7 14 -7 7 -32 36
-55 62 -22 27 -52 61 -65 75 -112 124 -127 170 -71 220 20 17 41 26 53 24 11
-2 20 0 20 5 0 5 18 1 40 -7 22 -9 40 -20 40 -26z m-367 13 c15 -7 28 -21 28
-32 1 -10 2 -30 2 -45 1 -16 6 -31 12 -35 7 -5 7 -11 0 -15 -14 -11 -18 -40
-6 -48 7 -4 7 -15 1 -30 -7 -18 -6 -25 3 -25 8 0 8 -3 -2 -9 -9 -6 -10 -11 -2
-15 6 -4 8 -12 5 -18 -10 -16 -12 -78 -2 -78 5 0 4 -8 -1 -18 -5 -10 -6 -24
-1 -32 4 -7 6 -18 4 -24 -9 -28 -12 -66 -4 -66 5 0 5 -13 0 -30 -5 -19 -5 -30
1 -30 6 0 7 -5 4 -11 -10 -14 -14 -59 -6 -59 4 0 7 -9 7 -20 0 -11 -4 -20 -8
-20 -5 0 -4 -9 2 -20 6 -11 7 -20 3 -20 -4 0 -8 -11 -8 -25 0 -14 4 -25 9 -25
5 0 2 -7 -5 -17 -8 -9 -13 -19 -13 -22 1 -3 -4 -14 -11 -24 -10 -15 -27 -19
-74 -20 -54 -1 -65 2 -88 26 l-27 26 1 363 c1 200 3 370 5 379 5 23 29 50 38
44 5 -3 11 -1 14 3 8 13 86 7 119 -8z m872 -4 c9 -9 21 -16 26 -16 5 0 9 -9 9
-20 0 -11 5 -20 10 -20 7 0 7 -6 1 -19 -6 -10 -8 -21 -4 -24 6 -7 -44 -72
-102 -131 -19 -20 -32 -36 -29 -36 3 0 -8 -13 -25 -29 -17 -16 -31 -32 -31
-36 0 -4 -10 -16 -22 -27 -20 -17 -24 -17 -34 -4 -6 9 -14 13 -17 9 -4 -3 -7
1 -7 10 0 9 -4 17 -8 17 -4 0 -16 14 -25 30 -10 17 -16 30 -12 30 3 0 -1 10
-10 23 -13 21 -13 26 11 60 13 20 23 37 20 37 -3 0 5 11 17 24 34 37 48 56 43
56 -11 0 57 63 82 76 33 17 85 13 107 -10z m-434 -486 c5 0 9 -6 9 -13 0 -7
10 -24 23 -37 12 -14 21 -26 20 -27 -7 -7 -2 -24 5 -19 4 2 7 -5 7 -18 -1 -24
-35 -86 -47 -86 -4 0 -7 -3 -6 -7 3 -17 -17 -50 -52 -85 -21 -20 -35 -40 -32
-43 3 -3 -4 -5 -16 -5 -11 0 -23 -4 -26 -8 -2 -4 -17 -7 -33 -6 -72 3 -110 45
-100 111 4 21 11 39 17 41 5 2 10 10 10 18 0 9 5 12 10 9 6 -3 10 -2 10 2 0
14 41 63 115 138 53 53 70 66 73 53 2 -10 8 -18 13 -18z m-3701 -485 c0 -7 3
-7 8 0 4 6 21 10 37 10 17 0 33 -4 37 -10 5 -7 8 -7 8 0 0 11 381 12 399 0 6
-3 11 -3 11 2 0 10 52 9 68 -1 7 -4 12 -4 12 1 0 12 413 10 422 -2 5 -7 8 -7
8 0 0 6 16 10 35 10 19 0 35 -4 35 -8 0 -5 5 -5 10 -2 6 4 73 7 149 7 149 0
189 -10 212 -54 15 -28 19 -77 8 -84 -5 -3 -7 -10 -4 -15 4 -5 1 -9 -5 -9 -6
0 -9 -4 -6 -9 3 -5 -13 -18 -37 -29 -32 -15 -45 -17 -56 -9 -11 9 -13 9 -8 0
9 -15 -65 -13 -75 2 -5 6 -8 7 -8 0 0 -7 -244 -9 -732 -8 -403 1 -739 3 -745
4 -7 1 -13 6 -13 11 0 5 -4 6 -10 3 -5 -3 -10 1 -10 9 0 9 -4 16 -9 16 -9 0
-24 43 -24 70 0 41 52 108 74 94 4 -2 10 -1 12 3 8 12 197 10 197 -2z m2902 1
c8 8 744 8 757 -1 6 -3 11 -3 11 2 0 12 164 10 172 -2 5 -7 8 -7 8 0 0 6 16
10 35 10 19 0 35 -4 35 -10 0 -7 3 -7 8 0 4 6 25 10 47 10 22 0 43 -4 47 -10
5 -6 8 -6 8 1 0 11 14 11 75 -1 44 -8 83 -58 80 -102 -1 -19 -8 -38 -14 -43
-7 -4 -11 -11 -9 -16 1 -4 -13 -17 -32 -28 -34 -20 -50 -21 -655 -21 -341 -1
-624 1 -630 4 -5 3 -16 6 -23 7 -8 2 -26 16 -41 33 -26 29 -29 40 -23 102 2
16 36 61 46 60 3 0 11 1 18 4 30 10 54 11 64 3 6 -4 13 -5 16 -2z m-2037 -491
c6 -1 16 3 23 8 8 6 12 5 12 -2 0 -7 5 -9 11 -6 15 10 99 11 99 2 0 -4 9 -3
20 3 11 6 20 7 20 2 0 -5 23 -6 50 -2 28 4 53 3 55 -1 3 -4 21 -3 40 1 19 4
35 5 35 1 0 -3 81 -4 181 -1 99 3 188 2 197 -1 9 -4 25 -2 35 3 11 6 17 5 17
-2 0 -6 5 -8 13 -3 17 11 37 13 37 3 0 -8 43 -5 59 5 6 3 11 1 11 -5 0 -6 5
-8 13 -3 17 11 37 13 37 3 0 -8 43 -5 59 5 6 3 11 1 11 -6 0 -9 3 -10 11 -2 6
6 25 7 49 3 24 -4 43 -3 49 3 8 8 11 7 11 -2 0 -7 5 -9 13 -4 17 11 37 13 37
3 0 -8 48 -5 57 4 3 2 16 1 29 -4 16 -7 24 -6 24 1 0 8 4 8 14 0 9 -8 16 -8
20 -2 4 6 15 7 29 2 14 -5 30 -5 40 0 11 7 17 6 17 -1 0 -6 5 -8 12 -4 18 11
48 12 48 2 0 -5 7 -5 16 0 9 5 32 6 50 2 19 -4 34 -4 34 1 0 5 10 5 23 0 14
-5 30 -5 40 0 12 7 17 6 17 -3 0 -8 3 -9 11 -1 6 6 25 7 49 3 24 -4 43 -3 49
3 8 8 11 7 11 -3 0 -10 3 -11 11 -3 6 6 25 7 50 3 22 -4 42 -4 45 1 2 4 16 4
29 -1 18 -7 25 -6 25 2 0 9 3 9 11 1 8 -8 20 -8 35 -3 15 6 24 6 24 0 0 -5 8
-6 18 -3 35 13 -6 -22 -52 -46 -25 -12 -48 -26 -51 -32 -4 -5 -11 -7 -16 -4
-5 4 -12 0 -15 -9 -3 -8 -12 -12 -20 -9 -8 3 -14 0 -14 -6 0 -6 -3 -10 -7 -9
-9 2 -40 -11 -109 -44 -28 -14 -58 -24 -67 -22 -10 1 -17 -2 -17 -7 0 -6 -4
-7 -10 -4 -5 3 -10 1 -10 -5 0 -6 -3 -9 -7 -7 -5 3 -19 0 -33 -6 -29 -11 -36
-14 -70 -20 -14 -3 -25 -6 -25 -7 0 -2 -16 -6 -55 -13 -14 -3 -25 -6 -25 -7 0
-2 -43 -10 -75 -14 -14 -2 -25 -5 -25 -6 0 -2 -42 -9 -95 -14 -25 -3 -45 -5
-45 -7 0 -9 -250 -17 -262 -7 -7 5 -14 5 -17 0 -3 -6 -30 -7 -58 -5 -29 3 -72
6 -95 6 -24 0 -43 3 -43 7 0 3 -15 5 -32 5 -18 -1 -39 3 -47 9 -12 9 -13 8 -6
-3 6 -11 5 -12 -6 -5 -8 4 -18 9 -24 10 -5 1 -19 6 -29 10 -15 6 -17 4 -11 -7
7 -11 6 -12 -7 -2 -8 7 -27 14 -42 15 -14 1 -26 5 -26 8 0 3 -8 6 -17 7 -10 0
-29 4 -43 8 -23 6 -53 12 -73 14 -5 1 -6 5 -2 10 3 6 -3 8 -14 6 -10 -2 -30 3
-45 10 -14 8 -26 11 -26 8 0 -3 -7 0 -15 7 -8 7 -15 10 -15 6 0 -4 -10 0 -23
9 -13 8 -27 12 -30 8 -4 -3 -7 0 -7 7 0 7 -3 10 -6 7 -4 -4 -19 0 -33 7 -48
26 -106 50 -113 48 -5 -1 -8 3 -8 9 0 5 -4 7 -10 4 -5 -3 -10 -1 -10 4 0 6 -6
11 -13 11 -7 0 -23 9 -34 19 -12 11 -23 18 -25 15 -3 -2 -13 6 -24 17 -19 22
-19 22 8 17 15 -3 32 -1 39 3 7 4 18 5 24 1 5 -4 15 -7 20 -7z"/>
<path d="M2062 4452 c-12 -2 -22 -9 -21 -15 6 -34 -16 -70 -50 -85 -20 -9 -39
-15 -43 -14 -3 1 -5 -6 -3 -16 2 -9 4 -21 4 -25 1 -5 6 -5 11 -2 6 3 10 2 10
-3 0 -13 50 -33 62 -25 7 4 9 0 5 -10 -3 -9 -1 -19 5 -23 7 -4 7 -9 -1 -13 -8
-5 -5 -14 8 -30 11 -13 22 -18 25 -12 4 6 13 8 21 5 14 -6 18 5 27 61 2 12 11
19 21 19 9 -1 17 2 17 7 0 5 5 9 11 9 13 0 35 22 34 35 -1 17 -16 36 -25 30
-5 -3 -16 2 -24 11 -9 8 -16 12 -16 7 -1 -4 -7 3 -14 16 -8 14 -12 31 -9 38 3
7 0 13 -7 13 -6 0 -9 4 -6 9 7 12 -13 18 -42 13z"/>
<path d="M3535 4450 c-11 -4 -23 -6 -27 -3 -8 4 -10 -1 -11 -34 -1 -10 -6 -21
-12 -25 -5 -4 -10 -13 -10 -20 0 -7 -7 -13 -15 -13 -36 -1 -59 -16 -55 -37 3
-11 6 -21 7 -22 2 0 13 -7 25 -13 13 -7 30 -13 38 -13 9 0 15 -9 15 -22 0 -41
12 -69 26 -64 7 3 16 1 19 -4 6 -10 35 -2 33 8 0 4 1 10 2 15 5 14 8 27 9 42
0 8 19 22 40 31 22 8 42 21 44 28 7 18 -14 40 -51 57 -21 9 -35 23 -38 39 -10
48 -18 58 -39 50z"/>
<path d="M2089 2490 c-29 -10 -58 -25 -64 -34 -7 -9 -15 -13 -18 -9 -4 3 -7
-1 -7 -11 0 -9 -4 -15 -8 -12 -11 7 -52 -69 -43 -81 7 -10 431 -14 431 -3 0 3
-6 12 -12 19 -11 11 -10 13 2 7 9 -5 9 -2 -2 7 -10 8 -16 16 -13 19 3 2 -9 20
-25 38 -17 19 -30 30 -30 26 0 -4 -10 2 -22 14 -12 11 -24 21 -27 21 -70 16
-112 16 -162 -1z"/>
<path d="M3095 2502 c-4 -4 -10 -7 -13 -7 -35 -3 -127 -57 -115 -68 3 -4 1 -7
-5 -7 -18 0 -44 -31 -38 -46 3 -8 -1 -14 -9 -14 -8 0 -12 -8 -10 -20 2 -11 0
-20 -4 -20 -5 0 -8 -28 -7 -63 2 -48 9 -74 32 -115 16 -28 35 -52 42 -52 7 0
11 -4 8 -9 -3 -4 16 -19 42 -32 26 -13 50 -28 54 -34 5 -6 8 -5 8 3 0 9 5 10
19 3 30 -16 115 -6 140 17 7 7 19 12 25 10 13 -5 57 38 49 46 -3 3 2 8 11 12
35 13 77 148 51 166 -6 5 -5 8 3 8 8 0 10 5 5 13 -4 6 -8 19 -10 27 -3 21 -25
60 -34 60 -5 0 -5 7 -2 17 4 10 2 14 -5 9 -6 -3 -13 3 -17 15 -4 11 -9 18 -12
15 -3 -3 -13 2 -22 12 -21 22 -57 42 -76 42 -8 0 -15 4 -15 10 0 6 -9 6 -22 1
-13 -5 -33 -5 -45 0 -11 4 -24 5 -28 1z"/>
</g>
</svg>
